<?xml version="1.0" encoding="utf-8"?>
<!-- Generator: Adobe Illustrator 25.0.0, SVG Export Plug-In . SVG Version: 6.00 Build 0)  -->
<svg version="1.1" id="Layer_1" xmlns="http://www.w3.org/2000/svg" xmlns:xlink="http://www.w3.org/1999/xlink" x="0px" y="0px"
	 viewBox="0 0 500 500" style="enable-background:new 0 0 500 500;" xml:space="preserve">
<style type="text/css">
	.st0{fill:#0ED1FF;}
	.st1{fill:#00246B;}
</style>
<g>
	<g>
		<path class="st0" d="M181.73,247.25c0,0-3.25-10.97-5.19-24.57c-1.95-13.62-14.88-25.33-14.88-25.33
			C156.11,234.75,181.73,247.25,181.73,247.25z"/>
		<path class="st0" d="M196.73,256.67c0,0,0.92-6.95-0.67-19c-1.59-12.05-12.02-19.92-12.02-19.92
			C179.24,256.98,196.73,256.67,196.73,256.67z"/>
		<path class="st0" d="M213.42,263.59c0.03-21.91-11.52-28.72-11.52-28.72C195.98,266.44,213.42,263.59,213.42,263.59z"/>
		<path class="st0" d="M371.58,397.4c5.92-23.15,16.65-85.45-26.38-123.13c-1.73-1.52-3.55-2.99-5.45-4.42
			c-18.62-13.82-32.86-23.45-43.71-31c-20.72-14.41-29.13-21.25-32.21-35.26c-0.47-1.5-12.35-3.21-13.71,8.92
			c-0.38,3.4,0.07,7.88,1.82,13.75c0.19,0.64,0.4,1.27,0.61,1.9c2.54,7.73,5.9,13.61,9.35,18.03c6.92,10.1,15.45,18.69,21.5,24.19
			c0.14,0.12,2.39,2.08,5.96,5.16c1.05,0.86,1.7,1.36,1.7,1.36s-0.07,0.03-0.08,0.03c1.04,0.9,2.16,1.86,3.34,2.88
			c0.33,9.01,0.18,43.12-20.53,46.71c-3.66,0.68-6.26-6.02,1.42-18.16c0,0-0.65-2.45,1.41-5.78c0,0-1.43-3.24-0.23-6.27
			c0,0-1.15,2.43-2.61,2.68c0,0,0.14,5.9-5.94,12.88c0,0-7.46,15.4-14.25,13.16c-2.81-0.91-5.17-9.15,1.58-20.16
			c1.07-2.92,3.56-14.75,3.56-14.75s-8.18,23.16-20.29,27.26c-5,0.93-7.75-8.54,2.61-33.33c0,0,0.4-4.82,2.42-8.53
			c-0.05,0.01-0.11,0.03-0.16,0.04c-1.02,1.38-3.15,4.05-5.52,5.59c0,0-6.85,12.21-12.79,11.38c-4.04-0.79-4.99-6.25-1.65-15.25
			c-14.9-0.81-31.62-6.54-48.53-21.75c-27.89-26.53-18.11-66.6-40.21-71.42c0,0-17.65,62.68,42.38,109.64
			c14.61,11.43,30.76,20.73,48.51,26.14c25.91,7.89,55.51,16.13,81.6,28.73c-0.01,0.01-0.02,0.01-0.02,0.02
			c21.16,10.21,40.02,23.28,52.72,41.36c0.01,0.01,0.02,0.02,0.02,0.03c0.47,0.67,0.94,1.36,1.39,2.04
			c0.04,0.06,0.08,0.11,0.12,0.17c0.42,0.64,0.83,1.29,1.24,1.94c0.07,0.11,0.13,0.21,0.2,0.31c0.38,0.61,0.75,1.23,1.11,1.86
			c0.09,0.15,0.18,0.29,0.26,0.44c0.34,0.59,0.67,1.18,0.99,1.78c0.1,0.19,0.21,0.37,0.31,0.56c0.31,0.57,0.6,1.15,0.9,1.73
			c0.11,0.22,0.23,0.43,0.34,0.66c0.3,0.59,0.58,1.2,0.86,1.8c0.1,0.21,0.21,0.42,0.3,0.63c0.38,0.82,0.74,1.65,1.1,2.48
			c0,0,0.12-0.35,0.34-1.03c0.12-0.38,0.28-0.87,0.45-1.44c0.37-1.22,0.85-2.86,1.39-4.89C371.29,398.55,371.43,397.98,371.58,397.4
			z"/>
	</g>
	<path class="st1" d="M131.36,98.24C203.29,71.47,245.1,126.69,250,133.64c4.9-6.96,46.71-62.18,118.64-35.41
		c39.95,14.86,68.43,63.3,59.9,114.11c-4.26,25.38-16.06,60.09-47.96,92.47c-2.28-6.27-5.15-12.44-8.71-18.43
		c6.21-7.92,11.45-16.11,15.3-24.49c24.11-54.4,9.38-93.19,6.8-99.2c-3.32-6.72-7.5-13.09-12.56-18.76
		c-13.52-15.11-31.04-23.76-49.33-24.37c-0.8-0.03-1.59-0.04-2.39-0.04c-28.22,0-59.17,22.19-79.69,47.55
		c-20.52-25.36-51.46-47.55-79.69-47.55c-0.8,0-1.6,0.01-2.39,0.04c-18.29,0.61-35.81,9.26-49.33,24.37
		c-5.06,5.66-9.24,12.03-12.56,18.76c-2.58,6.01-17.31,44.8,6.8,99.2c23.98,52.15,101.13,97.16,137.17,112.66
		c-137.51-37.18-170.7-115.5-178.54-162.2C62.93,161.54,91.41,113.1,131.36,98.24z"/>
	<path class="st0" d="M368.05,409.04c-7-8.47-15.58-15.25-24.52-21.29c-8.94-6.05-18.38-11.3-28.16-15.83
		c-19.52-9.32-40.02-15.56-61.15-21.34c-10.62-3.02-21.14-6.48-31.55-10.33c-10.31-4.13-20.62-8.39-30.34-14
		c-9.71-5.55-19.07-12.1-26.71-20.48c-3.84-4.15-7.11-8.79-9.9-13.62c-2.65-4.94-4.71-10.1-6.28-15.37
		c2.53,4.89,5.39,9.55,8.57,13.89c3.37,4.21,6.89,8.23,10.99,11.65c7.95,7.09,17.33,12.39,26.91,17.13
		c19.42,9.12,40.11,15.78,61.02,21.64c10.33,3.09,21.29,6.08,31.62,10.06c10.39,3.97,20.63,8.44,30.34,13.93
		c9.81,5.29,19.05,11.66,27.58,18.83C354.83,391.19,362.82,399.27,368.05,409.04z"/>
</g>
</svg>
