<svg xmlns="http://www.w3.org/2000/svg" width="80%" height="80%" viewBox="0 0 1024.000000 1024.000000" preserveAspectRatio="xMidYMid meet"><metadata>
Created by potrace 1.11, written by Peter Selinger 2001-2013
</metadata><g transform="translate(0.000000,1024.000000) scale(0.100000,-0.100000)" fill="#ffffff" stroke="none"><path d="M4579 9696 c-2 -2 -25 -6 -51 -9 -158 -19 -302 -165 -376 -382 -36 -104 -80 -282 -96 -390 -3 -16 -12 -73 -21 -125 -9 -52 -18 -108 -21 -125 -2 -16 -6 -41 -9 -55 -4 -22 -12 -79 -20 -135 -20 -144 -91 -492 -189 -930 -46 -209 -99 -452 -116 -540 -17 -88 -33 -169 -36 -180 -10 -51 -14 -73 -20 -105 -4 -19 -9 -44 -11 -55 -2 -11 -6 -36 -8 -55 -3 -19 -9 -55 -14 -80 -9 -38 -20 -100 -46 -270 -3 -14 -7 -42 -10 -64 -4 -21 -8 -47 -10 -58 -18 -93 -24 -397 -11 -532 17 -170 72 -319 147 -401 62 -68 122 -94 228 -101 58 -3 167 -14 194 -20 12 -2 38 -7 57 -10 88 -16 259 -68 335 -103 124 -57 317 -78 480 -53 83 13 137 27 370 97 157 48 260 35 306 -38 27 -43 21 -142 -13 -207 -29 -57 -141 -171 -193 -197 -85 -44 -128 -54 -290 -68 -177 -16 -330 -79 -377 -156 -16 -27 -19 -45 -15 -90 11 -129 106 -236 332 -379 83 -52 213 -135 290 -185 308 -201 362 -236 462 -295 329 -195 397 -290 321 -448 -28 -58 -82 -94 -149 -97 -91 -4 -190 37 -374 157 -131 85 -533 275 -646 306 -45 12 -69 0 -69 -35 0 -26 41 -116 66 -144 8 -8 14 -19 14 -22 0 -4 6 -15 14 -24 8 -10 50 -63 95 -118 83 -104 103 -126 230 -260 329 -348 395 -435 408 -544 12 -101 -85 -206 -198 -215 -97 -7 -182 56 -412 309 -25 28 -54 60 -65 72 -154 178 -428 458 -483 493 -107 70 -142 13 -108 -174 6 -34 13 -72 15 -86 21 -117 86 -317 179 -545 129 -320 151 -417 112 -492 -35 -67 -156 -107 -246 -83 -104 28 -174 140 -279 450 -216 632 -250 712 -318 745 -43 20 -56 19 -83 -6 -37 -34 -48 -74 -72 -250 -24 -169 -27 -286 -14 -490 9 -136 0 -177 -50 -215 -28 -21 -46 -26 -98 -27 -151 -3 -238 83 -262 258 -5 38 -5 213 -1 430 4 155 -26 280 -96 405 -30 53 -127 200 -139 210 -23 20 -238 316 -274 377 -73 126 -132 311 -151 478 -3 33 -8 68 -9 77 -2 9 -6 57 -10 105 -3 48 -8 117 -10 153 -3 36 -7 163 -10 283 -4 119 -8 225 -10 235 -1 9 -6 46 -10 82 -12 119 -74 371 -114 465 -5 11 -19 45 -31 75 -55 139 -171 331 -280 465 -258 316 -641 560 -1000 636 -125 27 -352 33 -477 14 -165 -26 -312 -89 -379 -163 -53 -59 -69 -102 -68 -187 1 -142 61 -246 273 -475 130 -139 210 -232 294 -339 15 -20 33 -43 40 -51 28 -33 156 -219 182 -262 5 -9 30 -50 54 -90 25 -40 73 -129 107 -198 148 -295 236 -579 299 -960 21 -132 26 -161 31 -215 3 -27 7 -62 9 -76 3 -15 7 -47 10 -70 11 -89 15 -115 26 -194 6 -44 13 -96 15 -115 2 -19 6 -46 9 -60 2 -14 7 -41 10 -60 23 -149 84 -379 139 -524 75 -197 213 -434 350 -601 23 -27 52 -63 66 -80 13 -16 90 -95 170 -175 458 -459 979 -771 1499 -897 115 -27 115 -27 184 -37 27 -4 59 -10 70 -12 84 -18 398 -23 547 -10 410 37 814 174 1204 408 92 55 266 175 320 219 140 116 188 159 292 263 192 193 280 311 474 634 165 276 359 565 459 688 15 17 33 40 41 50 136 173 288 331 470 488 49 43 194 145 280 198 153 95 350 179 760 323 693 243 969 461 986 777 8 157 -51 339 -142 447 -18 20 -56 50 -85 66 -76 42 -186 42 -309 1 -77 -25 -249 -107 -390 -185 -149 -82 -313 -155 -485 -216 -308 -109 -470 -163 -645 -217 -335 -103 -384 -114 -525 -112 -163 2 -242 69 -233 198 10 133 110 276 338 480 30 28 80 73 110 100 94 86 243 221 290 262 25 21 47 41 50 44 3 3 64 57 135 120 72 63 132 117 135 120 5 5 149 133 209 185 19 17 42 37 51 45 8 8 60 53 115 100 55 47 105 89 111 95 6 5 39 35 74 65 90 78 257 244 317 315 92 109 161 228 194 337 16 55 20 202 6 253 -45 169 -199 352 -332 395 -65 22 -170 16 -246 -13 -61 -23 -169 -84 -235 -132 -51 -37 -251 -213 -325 -285 -329 -321 -410 -396 -774 -725 -177 -160 -363 -301 -680 -514 -361 -243 -486 -238 -415 16 55 199 309 706 780 1558 354 640 504 944 525 1065 3 18 8 36 10 40 18 29 25 169 13 245 -21 137 -136 273 -297 355 -263 132 -497 28 -742 -330 -45 -66 -149 -232 -163 -260 -4 -8 -12 -24 -19 -35 -18 -30 -96 -174 -168 -310 -126 -239 -148 -281 -191 -365 -290 -572 -557 -1010 -708 -1161 -85 -86 -125 -109 -185 -109 -53 0 -88 26 -119 88 -52 105 -65 216 -60 527 9 582 32 946 74 1160 6 28 12 59 14 70 89 456 90 464 90 675 0 203 -13 277 -71 397 -58 120 -172 206 -303 229 -29 5 -168 13 -171 10z"></path></g></svg>