<?xml version="1.0" encoding="iso-8859-1"?>
<!-- Generator: Adobe Illustrator 19.0.0, SVG Export Plug-In . SVG Version: 6.00 Build 0)  -->
<svg version="1.1" id="Capa_1" xmlns="http://www.w3.org/2000/svg" xmlns:xlink="http://www.w3.org/1999/xlink" x="0px" y="0px"
	 viewBox="0 0 511 511" style="enable-background:new 0 0 511 511;" xml:space="preserve">
<path d="M487.5,72h-464C10.542,72,0,82.542,0,95.5v144C0,349.505,89.495,439,199.5,439h112C421.505,439,511,349.505,511,239.5v-144
	C511,82.542,500.458,72,487.5,72z M496,184H391.5c-4.687,0-8.5-3.813-8.5-8.5v-32c0-4.687,3.813-8.5,8.5-8.5H496V184z M23.5,87h464
	c4.687,0,8.5,3.813,8.5,8.5V120H391.5c-12.958,0-23.5,10.542-23.5,23.5v32c0,12.958,10.542,23.5,23.5,23.5H496v33.155
	C391.948,236.022,308.022,319.948,304.155,424h-97.311C202.978,319.948,119.052,236.022,15,232.155V199h104.5
	c12.958,0,23.5-10.542,23.5-23.5v-32c0-12.958-10.542-23.5-23.5-23.5H15V95.5C15,90.813,18.813,87,23.5,87z M15,135h104.5
	c4.687,0,8.5,3.813,8.5,8.5v32c0,4.687-3.813,8.5-8.5,8.5H15V135z M15.172,247.171c95.643,3.933,172.724,81.014,176.657,176.657
	C96.185,419.896,19.104,342.814,15.172,247.171z M319.172,423.829c3.933-95.643,81.014-172.724,176.657-176.657
	C491.896,342.814,414.815,419.896,319.172,423.829z"/>
<g>
</g>
<g>
</g>
<g>
</g>
<g>
</g>
<g>
</g>
<g>
</g>
<g>
</g>
<g>
</g>
<g>
</g>
<g>
</g>
<g>
</g>
<g>
</g>
<g>
</g>
<g>
</g>
<g>
</g>
</svg>
